<?xml version="1.0" standalone="no"?>
<!DOCTYPE svg PUBLIC "-//W3C//DTD SVG 20010904//EN"
 "http://www.w3.org/TR/2001/REC-SVG-20010904/DTD/svg10.dtd">
<svg version="1.0" xmlns="http://www.w3.org/2000/svg"
 width="1080.000000pt" height="1080.000000pt" viewBox="0 0 1080.000000 1080.000000"
 preserveAspectRatio="xMidYMid meet">

<g transform="translate(0.000000,1080.000000) scale(0.100000,-0.100000)">
<path fill="black" d="M0 5400 l0 -5400 5400 0 5400 0 0 5400 0 5400 -5400 0 -5400 0 0
-5400z m7000 2310 c0 -5 -4 -10 -10 -10 -5 0 -10 5 -10 10 0 6 5 10 10 10 6 0
10 -4 10 -10z m40 -57 c0 -14 -3 -24 -6 -20 -9 8 -33 -16 -27 -27 3 -5 -8 -7
-26 -4 -25 4 -31 1 -31 -14 0 -15 8 -18 45 -18 25 0 45 -4 45 -10 0 -5 18 -10
40 -10 29 0 40 -4 40 -15 0 -8 5 -15 10 -15 6 0 10 -18 10 -40 0 -27 4 -40 14
-40 7 0 19 -7 26 -15 7 -8 34 -15 63 -17 43 -2 54 -7 62 -25 6 -14 18 -23 32
-23 18 0 23 -6 23 -26 0 -19 4 -25 15 -20 9 3 19 -3 25 -14 6 -12 7 -20 1 -20
-5 0 -12 -36 -16 -80 -4 -44 -11 -80 -16 -80 -5 0 -9 -18 -9 -40 0 -36 3 -40
25 -40 22 0 25 -4 25 -39 0 -30 4 -40 20 -44 17 -4 20 0 20 29 0 19 5 34 10
34 25 0 -2 -92 -63 -219 -19 -38 -22 -41 -30 -23 -9 19 -31 33 -70 46 -10 3
-17 11 -16 18 5 41 -2 66 -21 71 -11 3 -20 14 -20 24 0 10 -9 25 -20 33 -11 8
-20 18 -20 22 0 5 -13 23 -29 41 -17 17 -49 55 -71 82 -23 28 -51 61 -62 74
-17 20 -20 33 -15 80 6 55 6 57 -38 106 -25 27 -45 53 -45 57 0 5 -7 8 -15 8
-15 0 -14 21 2 90 4 14 5 32 5 40 -1 8 5 33 13 55 10 28 14 33 15 18 0 -30 10
-28 40 7 31 37 40 37 40 3z m-3179 -292 c-12 -8 47 -47 65 -43 7 1 19 -17 28
-40 10 -24 31 -74 48 -113 57 -130 65 -150 78 -190 7 -22 30 -78 50 -125 21
-47 94 -218 163 -380 188 -445 228 -538 316 -745 45 -104 102 -239 128 -300
25 -60 59 -138 75 -173 15 -34 28 -64 28 -67 0 -4 143 -344 160 -380 5 -11 47
-112 93 -225 152 -368 209 -505 216 -512 4 -4 35 57 71 135 35 78 79 176 98
217 19 41 69 154 112 250 43 96 95 211 115 255 21 44 66 143 100 220 35 77 74
165 88 195 13 30 41 93 62 140 21 47 48 109 61 138 13 28 36 78 50 110 14 31
52 111 84 177 70 145 125 264 150 325 37 92 300 657 417 895 29 61 33 65 28
33 -7 -47 6 -49 28 -5 l17 32 -4 -29 c-4 -30 12 -56 36 -56 7 0 33 10 58 22
25 11 52 24 60 28 8 4 27 3 43 -2 24 -9 27 -14 27 -59 0 -48 1 -49 30 -49 28
0 30 -2 30 -40 0 -22 5 -40 10 -40 6 0 10 17 10 39 0 21 6 44 13 50 17 13 28
5 20 -15 -4 -10 0 -12 11 -8 11 4 16 0 16 -14 0 -11 3 -28 7 -38 5 -14 2 -16
-15 -12 -34 9 -26 -22 15 -56 27 -23 36 -27 43 -16 7 11 11 11 24 1 18 -15 11
-61 -11 -74 -20 -12 -16 -26 7 -20 18 5 20 0 20 -35 0 -23 -4 -44 -10 -47 -14
-9 -12 -51 3 -67 32 -36 48 -88 27 -88 -5 0 -10 -7 -10 -16 0 -12 5 -10 20 9
11 14 20 33 20 43 0 9 3 15 6 11 8 -7 -17 -97 -27 -97 -4 0 -9 -17 -12 -38 -6
-32 -31 -96 -132 -327 -67 -154 -269 -624 -290 -675 -15 -36 -38 -88 -51 -117
-13 -28 -24 -54 -24 -57 0 -3 -16 -40 -35 -82 -19 -41 -35 -78 -35 -80 0 -3
-13 -33 -29 -67 -16 -34 -41 -90 -55 -124 -14 -35 -38 -88 -52 -119 -14 -31
-41 -91 -59 -133 -51 -118 -119 -270 -152 -341 -70 -149 -103 -222 -103 -228
0 -4 -7 -20 -16 -37 -9 -16 -27 -59 -41 -95 -13 -36 -44 -105 -68 -155 -55
-112 -130 -282 -140 -315 -4 -14 -22 -56 -40 -95 -18 -38 -42 -92 -54 -120
-36 -81 -37 -84 -101 -225 -154 -337 -180 -389 -180 -368 0 9 -8 33 -17 52
-14 27 -26 35 -54 40 -20 3 -49 13 -65 21 -16 8 -35 15 -42 15 -12 0 -52 19
-62 30 -16 17 -58 28 -69 17 -8 -8 -11 -6 -11 8 0 17 -1 17 -19 1 -23 -21 -51
-97 -51 -137 0 -48 -9 -59 -51 -59 -21 0 -39 5 -39 10 0 6 18 10 40 10 29 0
40 4 40 15 0 11 -12 15 -48 15 -39 0 -53 5 -72 25 -27 29 -50 32 -50 8 -1 -16
-2 -16 -15 1 -15 20 -15 19 -15 -1 0 -11 9 -32 20 -46 23 -28 25 -43 9 -53 -7
-4 -9 0 -5 14 4 12 1 22 -8 25 -8 3 -19 22 -26 41 -6 20 -15 36 -20 36 -4 0
-10 15 -14 32 -4 18 -26 73 -50 123 -24 49 -92 205 -151 345 -59 140 -120 286
-137 324 -16 38 -40 97 -52 130 -13 34 -34 84 -46 111 -13 28 -41 93 -62 145
-37 88 -60 145 -163 395 -20 50 -45 108 -56 130 -10 22 -46 108 -79 190 -126
312 -165 406 -256 620 -51 121 -122 297 -159 390 -37 94 -75 188 -84 210 -10
22 -31 72 -46 110 -15 39 -97 245 -182 458 -147 368 -155 389 -142 418 7 17
23 41 37 54 21 20 23 28 19 81 -3 33 -7 68 -9 79 -2 11 2 20 7 20 6 0 10 -10
10 -22 -1 -16 5 -23 17 -23 14 0 18 8 18 40 0 36 3 40 25 40 23 0 25 4 25 40
0 35 3 40 23 40 25 1 57 22 57 39 0 6 17 11 40 11 29 0 40 4 40 15 0 8 -8 15
-17 15 -16 1 -16 2 1 15 25 19 41 19 60 0 8 -8 19 -15 25 -15 6 0 11 -11 11
-25 0 -14 5 -25 10 -25 6 0 10 -7 10 -15 0 -8 7 -15 15 -15 8 0 19 -9 25 -20
6 -12 21 -20 35 -20 19 0 26 7 30 28 4 15 10 34 16 42 21 34 29 63 23 88 l-5
27 16 -29 c12 -19 14 -31 6 -35z m37 8 c-3 -8 -7 -3 -11 10 -4 17 -3 21 5 13
5 -5 8 -16 6 -23z m3157 -239 c3 -5 1 -10 -4 -10 -6 0 -11 5 -11 10 0 6 2 10
4 10 3 0 8 -4 11 -10z m476 -13 c-10 -9 -11 -8 -5 6 3 10 9 15 12 12 3 -3 0
-11 -7 -18z m-64 -39 c-3 -8 -6 -5 -6 6 -1 11 2 17 5 13 3 -3 4 -12 1 -19z
m50 0 c-3 -8 -6 -5 -6 6 -1 11 2 17 5 13 3 -3 4 -12 1 -19z m-23 -50 c-9 -14
-23 2 -17 18 4 12 8 13 14 3 4 -7 5 -17 3 -21z m-157 -350 c-3 -8 -6 -5 -6 6
-1 11 2 17 5 13 3 -3 4 -12 1 -19z m-60 -60 c-3 -8 -6 -5 -6 6 -1 11 2 17 5
13 3 -3 4 -12 1 -19z m-1802 -4208 c3 -5 -1 -10 -10 -10 -9 0 -13 5 -10 10 3
6 8 10 10 10 2 0 7 -4 10 -10z"/>
<path d="M3440 6975 c0 -9 9 -15 21 -15 18 0 19 2 9 15 -7 8 -16 15 -21 15 -5
0 -9 -7 -9 -15z"/>
</g>
</svg>
